<svg width="709" height="494" viewBox="0 0 709 494" fill="none" xmlns="http://www.w3.org/2000/svg">
<g clip-path="url(#clip0_138_3115)">
<path d="M233.488 494.001C212.095 494.001 190.733 493.468 169.403 492.404C138.926 490.882 107.411 489.31 78.1189 466.729C57.6278 450.934 39.4797 425.593 25.6372 393.443C16.3851 371.651 9.60103 348.011 5.52332 323.351C-2.08316 278.455 -1.82408 231.677 6.2788 186.948C9.11835 171.613 13.0329 156.701 17.9662 142.428C39.3277 80.9444 78.2896 39.6721 124.862 29.1947C125.247 29.1253 125.636 29.1137 126.022 29.1602C126.231 29.1758 126.44 29.1925 126.653 29.1801L126.927 29.0591C127.63 28.7197 128.351 28.4624 129.084 28.2896C200.911 13.4273 276.843 43.4989 348.664 115.251C404.197 170.737 477.793 200.616 573.658 206.594L575.019 206.693C601.706 208.824 627.52 224.116 649.674 250.918C671.54 277.372 687.958 312.667 697.152 352.989C698.283 357.905 699.319 363.022 700.232 368.197C701.082 373.007 701.022 378.04 700.058 382.808C699.094 387.576 697.258 391.916 694.729 395.405V395.415L694.49 395.756C693.916 396.55 693.311 397.312 692.693 398.021L691.966 398.854C685.839 405.869 681 411.41 675.209 415.713C671.347 418.564 667.239 420.72 662.985 422.128C639.623 430.045 615.899 437.384 592.472 443.944C546.975 456.695 500.279 467.213 453.682 475.206C380.63 487.725 307.093 494.002 233.488 494.001ZM125.477 31.3378C125.334 31.336 125.191 31.3495 125.05 31.3782C78.9127 41.7577 40.3196 82.6247 19.1699 143.5C14.2852 157.632 10.4094 172.396 7.59812 187.579C-0.430926 231.911 -0.686789 278.274 6.85204 322.771C10.8898 347.195 17.6081 370.609 26.7709 392.192C40.4779 424.027 58.4404 449.114 78.7167 464.742C107.746 487.121 139.112 488.687 169.446 490.2C264.32 494.911 359.314 489.165 453.535 473.015C500.102 465.026 546.768 454.515 592.235 441.773C615.646 435.218 639.354 427.884 662.699 419.972C666.851 418.599 670.86 416.496 674.629 413.714C680.304 409.498 685.096 404.009 691.164 397.062L691.891 396.23C692.423 395.62 692.944 394.967 693.444 394.289L693.587 394.081C698.573 387.095 700.512 377.879 698.907 368.796V368.795C698.003 363.675 696.978 358.613 695.859 353.747C677.077 271.378 628.489 213.168 574.954 208.894L573.6 208.795C529.81 206.064 491.49 198.499 456.456 185.665C414.634 170.344 378.122 147.282 347.935 117.12C276.387 45.6432 200.773 15.6835 129.26 30.4753C128.592 30.6354 127.934 30.8723 127.295 31.1834L126.801 31.3755C126.52 31.3929 126.239 31.3882 125.959 31.3615C125.794 31.3497 125.634 31.3378 125.477 31.3378Z" fill="#F0F0F0"/>
<path d="M221.464 160.951C219.483 158.31 217.458 143.582 214.929 142.087C216.819 147.893 215.447 149.43 215.437 155.802C215.461 159.42 215.157 163.028 214.532 166.54H171.699V120.079C171.699 115.904 172.291 111.77 173.44 107.913C174.589 104.056 176.274 100.552 178.398 97.5997C180.522 94.6478 183.043 92.3062 185.818 90.7086C188.593 89.1111 191.567 88.2889 194.571 88.2891C195.717 88.3202 196.856 88.5519 197.961 88.9789C201.643 90.3604 204.998 93.0633 207.691 96.8164C210.384 100.569 212.319 105.241 213.303 110.362C216.568 126.95 221.761 154.564 221.464 160.951Z" fill="#2F2E41"/>
<path d="M174.211 218.109L174.232 181.895L158.916 183.797L164.321 206.637L161.791 264.046C160.564 264.429 159.444 265.3 158.567 266.552C157.69 267.805 157.094 269.385 156.852 271.1C156.61 272.815 156.732 274.59 157.203 276.211C157.674 277.831 158.475 279.226 159.507 280.225C160.539 281.223 161.757 281.784 163.014 281.836C164.271 281.889 165.512 281.433 166.585 280.523C167.659 279.612 168.518 278.288 169.059 276.71C169.6 275.132 169.8 273.37 169.633 271.638L174.211 218.109Z" fill="#FFB6B6"/>
<path d="M204.353 476.896L210.541 476.895L213.484 443.723H204.352L204.353 476.896Z" fill="#FFB6B6"/>
<path d="M202.257 472.653L212.038 471.842V477.667L221.338 486.593C221.797 487.034 222.143 487.667 222.325 488.401C222.507 489.134 222.515 489.929 222.349 490.67C222.183 491.411 221.851 492.058 221.401 492.518C220.952 492.978 220.408 493.226 219.85 493.226H208.205L206.198 487.464L205.414 493.226H201.023L202.257 472.653Z" fill="#2F2E41"/>
<path d="M168.575 476.896L174.763 476.895L177.706 443.723H168.574L168.575 476.896Z" fill="#FFB6B6"/>
<path d="M166.479 472.653L176.261 471.842V477.667L185.56 486.593C186.02 487.034 186.366 487.667 186.548 488.401C186.73 489.134 186.738 489.929 186.572 490.67C186.406 491.411 186.074 492.058 185.624 492.518C185.175 492.978 184.631 493.226 184.073 493.226H172.428L170.42 487.464L169.637 493.226H165.246L166.479 472.653Z" fill="#2F2E41"/>
<path d="M198.842 142.785L186.023 143.135L176.975 156.409L169.721 157.888C166.44 158.557 163.423 160.771 161.175 164.16C158.927 167.549 157.584 171.908 157.371 176.508L158.628 186.103H166.168L170.53 221.7C168.834 227.707 168.718 232.449 172.2 234.311L183.007 262.607L214.927 242.695C216.546 238.827 217.065 234.942 215.41 231.164L217.692 176.671H225.365C225.365 166.479 222.884 157.887 215.597 156.753C212.703 156.317 209.795 156.086 206.884 156.06L198.842 142.785Z" fill="#E6E6E6"/>
<path d="M214.927 242.697C214.927 242.697 183.761 250.382 172.199 234.312C172.199 234.312 171.026 237.082 169.257 241.675C168.748 242.996 167.766 243.891 167.173 245.491C166.634 246.945 165.247 248.733 164.659 250.382C164.187 251.709 164.945 253.443 164.453 254.877C158.532 272.138 151.615 296.486 153.098 312.564C154.054 322.932 156.03 347.058 158.11 372.97C158.272 374.995 156.956 377.596 157.119 379.636C157.273 381.561 158.907 382.924 159.061 384.853C159.164 386.134 158.023 387.44 158.125 388.719C158.237 390.122 159.592 391.498 159.703 392.896C162.553 428.675 165.162 462.08 165.162 462.08H179.74L182.49 385.787L180.242 357.977L185.52 301.734L192.809 355.183L193.747 385.264L201.45 463.477H214.927V387.762L215.932 383.828L214.927 378.784L215.932 373.348L214.927 367.429V242.697Z" fill="#2F2E41"/>
<path d="M202.778 132.454C200.793 136.12 197.968 138.737 194.77 139.874C191.571 141.01 188.189 140.599 185.181 138.708C182.173 136.816 179.718 133.557 178.221 129.468C176.724 125.378 176.273 120.702 176.943 116.208C177.613 111.715 179.365 107.673 181.908 104.748C184.452 101.823 187.637 100.189 190.938 100.116C194.239 100.042 197.459 101.534 200.069 104.344C202.679 107.155 204.522 111.117 205.296 115.578C205.338 115.82 205.373 116.061 205.407 116.31C205.815 119.107 205.792 121.992 205.339 124.774C204.886 127.557 204.013 130.175 202.778 132.454Z" fill="#FFB6B6"/>
<path d="M199.748 120.931C199.439 118.781 198.66 116.817 197.516 115.307C197.629 117.368 197.423 119.438 196.913 121.379C193.091 121.849 189.253 120.792 185.849 118.332C183.285 115.915 180.023 116.125 176.223 118.332C176.222 115.763 176.586 113.219 177.294 110.846C178.001 108.472 179.038 106.315 180.345 104.499C181.652 102.682 183.203 101.241 184.911 100.258C186.619 99.275 188.449 98.7692 190.297 98.7695H192.811C196.544 98.7705 200.123 100.832 202.763 104.5C205.402 108.169 206.885 113.144 206.886 118.332C204.566 119.489 202.177 120.358 199.748 120.931Z" fill="#2F2E41"/>
<path d="M89.7905 370.268C112.122 370.268 130.226 345.106 130.226 314.066C130.226 283.027 112.122 257.865 89.7905 257.865C67.4589 257.865 49.3555 283.027 49.3555 314.066C49.3555 345.106 67.4589 370.268 89.7905 370.268Z" fill="#F0F0F0"/>
<path d="M347.462 112.402C369.794 112.402 387.897 87.2403 387.897 56.2012C387.897 25.1621 369.794 0 347.462 0C325.131 0 307.027 25.1621 307.027 56.2012C307.027 87.2403 325.131 112.402 347.462 112.402Z" fill="#F0F0F0"/>
<path d="M668.564 379.084C690.896 379.084 708.999 353.922 708.999 322.883C708.999 291.844 690.896 266.682 668.564 266.682C646.232 266.682 628.129 291.844 628.129 322.883C628.129 353.922 646.232 379.084 668.564 379.084Z" fill="#F0F0F0"/>
<path d="M420.404 62.3312V189.771C420.404 192.418 419.653 194.959 418.314 196.84C416.974 198.722 415.154 199.793 413.25 199.821C413.224 199.824 413.197 199.826 413.171 199.825H402.499C393.961 199.825 385.772 195.111 379.734 186.719C373.697 178.327 370.305 166.945 370.305 155.077V62.3312C370.305 59.6647 371.067 57.1075 372.423 55.222C373.78 53.3366 375.62 52.2773 377.538 52.2773H381.862C379.859 60.3997 407.047 63.8193 408.54 52.2773H413.171C415.089 52.2774 416.929 53.3366 418.286 55.2221C419.642 57.1075 420.404 59.6648 420.404 62.3312Z" fill="#6C63FF"/>
<path d="M388.734 42.7473C388.735 42.398 388.835 42.0631 389.012 41.8161C389.19 41.5691 389.431 41.4301 389.682 41.4297H396.128C396.379 41.4307 396.62 41.5699 396.797 41.8169C396.974 42.0639 397.074 42.3985 397.074 42.7473C397.074 43.0961 396.974 43.4306 396.797 43.6776C396.62 43.9246 396.379 44.0639 396.128 44.0649H389.682C389.431 44.0644 389.19 43.9255 389.012 43.6785C388.835 43.4315 388.735 43.0966 388.734 42.7473Z" fill="#3F3D56"/>
<path d="M415.388 215.991H374.623C371.46 215.986 368.428 214.238 366.191 211.13C363.955 208.021 362.697 203.807 362.693 199.411V110.325C362.47 110.102 362.287 109.807 362.162 109.466C362.036 109.125 361.971 108.748 361.971 108.365V99.4052C361.971 99.0223 362.036 98.6447 362.162 98.3039C362.287 97.9631 362.47 97.6689 362.693 97.4456V95.0409C362.47 94.8176 362.287 94.5233 362.162 94.1825C362.036 93.8417 361.971 93.4642 361.971 93.0812V84.1211C361.971 83.7382 362.036 83.3606 362.162 83.0198C362.287 82.679 362.47 82.3848 362.693 82.1615V77.8154C362.417 77.6091 362.186 77.3022 362.025 76.9277C361.865 76.5531 361.78 76.1249 361.781 75.6889V66.7294C361.78 66.2932 361.865 65.865 362.025 65.4903C362.186 65.1157 362.417 64.8087 362.693 64.6023V52.6936C362.697 48.2977 363.955 44.0833 366.191 40.975C368.428 37.8666 371.46 36.1182 374.623 36.1133H415.388C418.55 36.1182 421.582 37.8667 423.819 40.975C426.055 44.0834 427.313 48.2978 427.317 52.6936V78.6521C427.531 78.8389 427.709 79.0985 427.831 79.4066C427.954 79.7146 428.019 80.061 428.019 80.4132V97.4972C428.019 97.8495 427.954 98.196 427.831 98.5041C427.709 98.8122 427.531 99.072 427.317 99.2589V199.411C427.313 203.807 426.055 208.021 423.819 211.129C421.582 214.238 418.55 215.986 415.388 215.991ZM374.623 38.3173C371.88 38.3215 369.251 39.8375 367.312 42.5327C365.373 45.2278 364.282 48.882 364.279 52.6936V66.477L363.516 66.5179C363.477 66.5199 363.439 66.5429 363.411 66.5823C363.384 66.6216 363.368 66.6743 363.367 66.7294V75.6888C363.368 75.7439 363.384 75.7965 363.411 75.8358C363.439 75.8751 363.477 75.8982 363.516 75.9003L364.279 75.9407V83.7089L363.676 83.9155C363.642 83.9267 363.613 83.953 363.591 83.9901C363.57 84.0273 363.557 84.0734 363.557 84.1211V93.0812C363.557 93.1289 363.57 93.175 363.591 93.2121C363.613 93.2493 363.642 93.2755 363.676 93.2867L364.279 93.4933V98.993L363.676 99.1996C363.642 99.2108 363.613 99.2371 363.591 99.2743C363.57 99.3114 363.557 99.3575 363.557 99.4052V108.365C363.557 108.413 363.569 108.459 363.591 108.496C363.613 108.533 363.642 108.56 363.676 108.571L364.279 108.777V199.411C364.282 203.222 365.373 206.877 367.312 209.572C369.251 212.267 371.88 213.783 374.623 213.787H415.388C418.13 213.783 420.759 212.267 422.698 209.572C424.637 206.876 425.728 203.222 425.731 199.411V97.3718H426.433V80.5391H425.731V52.6936C425.728 48.8821 424.637 45.2279 422.698 42.5328C420.759 39.8376 418.13 38.3216 415.388 38.3172L374.623 38.3173Z" fill="#3F3D56"/>
<path d="M399.733 44.0649C400.257 44.0649 400.681 43.475 400.681 42.7473C400.681 42.0196 400.257 41.4297 399.733 41.4297C399.21 41.4297 398.785 42.0196 398.785 42.7473C398.785 43.475 399.21 44.0649 399.733 44.0649Z" fill="#3F3D56"/>
<path d="M193.519 297.98H87.4463C85.94 297.975 84.4965 297.141 83.4312 295.661C82.366 294.18 81.7658 292.174 81.7617 290.08V218.243C81.7656 216.149 82.3656 214.143 83.4307 212.662C84.4958 211.182 85.9392 210.347 87.4456 210.342H193.518C195.024 210.347 196.468 211.181 197.533 212.662C198.598 214.142 199.198 216.148 199.203 218.242V290.079C199.199 292.173 198.599 294.179 197.534 295.66C196.468 297.14 195.025 297.975 193.519 297.98Z" fill="white"/>
<path d="M193.519 297.98H87.4463C85.94 297.975 84.4965 297.141 83.4312 295.661C82.366 294.18 81.7658 292.174 81.7617 290.08V218.243C81.7656 216.149 82.3656 214.143 83.4307 212.662C84.4958 211.182 85.9392 210.347 87.4456 210.342H193.518C195.024 210.347 196.468 211.181 197.533 212.662C198.598 214.142 199.198 216.148 199.203 218.242V290.079C199.199 292.173 198.599 294.179 197.534 295.66C196.468 297.14 195.025 297.975 193.519 297.98ZM87.4463 212.546C86.3601 212.55 85.3192 213.152 84.5512 214.22C83.7832 215.287 83.3504 216.734 83.3474 218.244V290.079C83.3505 291.589 83.7835 293.036 84.5517 294.103C85.3199 295.171 86.3608 295.772 87.4471 295.776H193.517C194.604 295.772 195.645 295.17 196.413 294.103C197.181 293.035 197.614 291.588 197.617 290.078V218.243C197.614 216.733 197.181 215.287 196.412 214.219C195.644 213.152 194.603 212.55 193.517 212.546L87.4463 212.546Z" fill="#3F3D56"/>
<path d="M146.165 287.364C125.245 287.364 103.432 287.086 95.2928 286.906C94.222 286.875 93.2022 286.264 92.4512 285.202C91.7003 284.141 91.2776 282.714 91.2734 281.225V221.76C91.2739 221.227 91.4261 220.716 91.697 220.338C91.9679 219.961 92.3353 219.748 92.7188 219.746H188.237C188.621 219.747 188.988 219.958 189.26 220.335C189.531 220.711 189.685 221.222 189.686 221.755V262.101C189.668 268.686 187.794 275 184.465 279.688C181.137 284.375 176.619 287.062 171.881 287.173C164.296 287.31 155.314 287.364 146.165 287.364Z" fill="#6C63FF"/>
<path d="M182.57 258.394H96.2619C95.5392 258.391 94.8346 258.079 94.2439 257.501C93.6533 256.922 93.2051 256.104 92.9604 255.159L83.1916 217.068C83.0033 216.333 82.9446 215.546 83.0205 214.773C83.0963 214.001 83.3045 213.265 83.6274 212.627C83.9504 211.989 84.3787 211.468 84.8765 211.108C85.3743 210.749 85.9269 210.56 86.488 210.558L194.372 210.35C194.885 210.349 195.392 210.504 195.856 210.805C196.321 211.106 196.733 211.545 197.063 212.092C197.392 212.638 197.632 213.278 197.764 213.966C197.896 214.655 197.918 215.376 197.828 216.077L197.912 216.126L197.602 217.131L197.599 217.141L185.789 255.441C185.52 256.318 185.072 257.065 184.499 257.59C183.927 258.115 183.256 258.395 182.57 258.394ZM194.377 212.554L86.491 212.762C86.1837 212.763 85.8809 212.866 85.6082 213.063C85.3356 213.261 85.1009 213.546 84.9239 213.895C84.747 214.244 84.633 214.648 84.5914 215.071C84.5498 215.494 84.582 215.925 84.6851 216.328L94.4536 254.418C94.5878 254.935 94.8335 255.383 95.1572 255.7C95.4809 256.018 95.867 256.188 96.263 256.19H182.57C182.946 256.19 183.313 256.037 183.626 255.75C183.939 255.463 184.185 255.054 184.332 254.574L196.142 216.273C196.267 215.867 196.317 215.424 196.289 214.984C196.261 214.545 196.155 214.121 195.98 213.753C195.805 213.384 195.567 213.082 195.287 212.872C195.007 212.663 194.695 212.554 194.377 212.554Z" fill="#3F3D56"/>
<path d="M140.321 266.685C144.053 266.685 147.079 262.48 147.079 257.292C147.079 252.104 144.053 247.898 140.321 247.898C136.588 247.898 133.562 252.104 133.562 257.292C133.562 262.48 136.588 266.685 140.321 266.685Z" fill="white"/>
<path d="M395.614 185.138C399.346 185.138 402.372 180.933 402.372 175.745C402.372 170.557 399.346 166.352 395.614 166.352C391.881 166.352 388.855 170.557 388.855 175.745C388.855 180.933 391.881 185.138 395.614 185.138Z" fill="white"/>
<path d="M651.227 311.994L633.174 287.221C632.295 286.006 631.252 285.043 630.105 284.389C628.958 283.735 627.73 283.401 626.49 283.408H626.427C625.178 283.413 623.942 283.763 622.79 284.436C621.639 285.109 620.595 286.094 619.719 287.331C615.683 293.009 613.387 300.641 613.314 308.623C613.242 316.605 615.398 324.315 619.331 330.132C619.521 330.419 619.719 330.694 619.917 330.97C621.015 332.487 622.227 333.835 623.533 334.992C627.102 338.197 631.264 339.893 635.513 339.874H635.647C638.564 339.86 641.449 339.043 644.137 337.469C646.825 335.895 649.262 333.596 651.306 330.705C653.078 328.207 654.064 324.835 654.049 321.327C654.034 317.819 653.019 314.463 651.227 311.994ZM650.18 329.152C646.828 333.845 642.415 336.789 637.684 337.487C632.953 338.186 628.193 336.596 624.207 332.987C623.066 331.938 622.002 330.738 621.027 329.405C617.137 324.065 614.933 316.797 614.899 309.198C614.865 301.599 617.003 294.292 620.845 288.885C621.575 287.851 622.446 287.029 623.407 286.467C624.368 285.905 625.4 285.615 626.443 285.612H626.49C627.522 285.607 628.545 285.885 629.5 286.429C630.455 286.974 631.324 287.775 632.056 288.786L650.109 313.57C651.603 315.624 652.45 318.419 652.464 321.34C652.477 324.262 651.656 327.071 650.18 329.152Z" fill="#3F3D56"/>
<path d="M591.992 230.688L573.939 205.905C572.162 203.454 569.759 202.083 567.255 202.092H567.2C565.949 202.099 564.712 202.45 563.559 203.125C562.407 203.801 561.362 204.786 560.485 206.026C557.147 210.736 554.984 216.809 554.31 223.353C553.637 229.897 554.489 236.569 556.742 242.391L556.75 242.402C557.68 244.784 558.834 246.981 560.183 248.937C560.334 249.18 560.508 249.422 560.683 249.664C564.828 255.384 570.437 258.586 576.278 258.568H576.421C579.338 258.552 582.223 257.732 584.911 256.156C587.598 254.581 590.035 252.281 592.079 249.389C592.957 248.153 593.651 246.689 594.122 245.08C594.593 243.472 594.831 241.75 594.823 240.013C594.815 238.277 594.56 236.56 594.075 234.96C593.589 233.36 592.881 231.908 591.992 230.688ZM590.946 247.846C589.048 250.53 586.787 252.664 584.292 254.126C581.798 255.588 579.12 256.349 576.413 256.365H576.278C572.213 256.362 568.238 254.689 564.855 251.556C561.472 248.423 558.831 243.969 557.264 238.755C555.697 233.541 555.275 227.799 556.049 222.252C556.824 216.705 558.762 211.6 561.618 207.58C563.096 205.503 565.107 204.326 567.209 204.307C569.311 204.288 571.332 205.43 572.829 207.481L590.882 232.253C592.376 234.311 593.221 237.108 593.233 240.031C593.245 242.955 592.422 245.765 590.946 247.846Z" fill="#3F3D56"/>
<path d="M652.379 319.783L632.476 292.46C631.171 290.673 629.409 289.678 627.577 289.694C625.744 289.709 623.991 290.735 622.702 292.545C621.09 294.809 619.814 297.493 618.948 300.443C618.083 303.393 617.644 306.551 617.657 309.737C617.669 312.923 618.134 316.074 619.024 319.01C619.914 321.946 621.211 324.61 622.842 326.849C624.473 329.088 626.405 330.858 628.528 332.058C630.652 333.258 632.925 333.865 635.217 333.843C637.509 333.822 639.776 333.172 641.887 331.932C643.999 330.692 645.914 328.886 647.523 326.617L652.379 319.783Z" fill="#6C63FF"/>
<path d="M593.149 238.474L573.246 211.152C571.941 209.364 570.179 208.369 568.346 208.385C566.514 208.401 564.761 209.426 563.472 211.236C561.859 213.5 560.584 216.184 559.718 219.134C558.852 222.084 558.413 225.242 558.426 228.428C558.439 231.614 558.904 234.765 559.793 237.702C560.683 240.638 561.981 243.302 563.611 245.54C565.242 247.779 567.175 249.549 569.298 250.749C571.421 251.949 573.694 252.556 575.986 252.535C578.278 252.513 580.545 251.864 582.657 250.624C584.768 249.384 586.683 247.578 588.292 245.308L593.149 238.474Z" fill="#6C63FF"/>
<path d="M630.509 336.8L630.033 338.541C627.797 337.362 625.63 336.179 623.532 334.992C586.363 313.911 568.62 289.238 556.751 242.404L556.743 242.393C556.18 240.189 555.633 237.933 555.102 235.626L556.354 235.064C556.773 237.283 557.386 239.422 558.178 241.434C558.828 244.002 559.497 246.503 560.184 248.938C571.339 288.467 587.791 311.057 619.33 330.133C620.916 331.091 622.541 332.043 624.206 332.987C626.139 334.738 628.27 336.026 630.509 336.8Z" fill="#3F3D56"/>
<path d="M573.607 256.564L572.492 258.133L613.671 314.662L614.786 313.094L573.607 256.564Z" fill="#3F3D56"/>
<path d="M224.981 209.724L225.002 173.51L209.686 175.412L215.092 198.252L195.471 239.592C194.244 239.975 193.124 240.846 192.247 242.098C191.37 243.35 190.774 244.93 190.531 246.645C190.289 248.36 190.411 250.136 190.883 251.756C191.354 253.377 192.155 254.771 193.186 255.77C194.218 256.769 195.437 257.329 196.694 257.382C197.951 257.435 199.191 256.979 200.265 256.068C201.338 255.158 202.198 253.833 202.739 252.256C203.28 250.678 203.479 248.916 203.312 247.183L224.981 209.724Z" fill="#FFB6B6"/>
</g>
<defs>
<clipPath id="clip0_138_3115">
<rect width="709" height="494" fill="white"/>
</clipPath>
</defs>
</svg>
