<svg width="657" height="630" viewBox="0 0 657 630" fill="none" xmlns="http://www.w3.org/2000/svg">
<g clip-path="url(#clip0_138_3035)">
<path d="M15.5 0C11.3906 0.004616 7.45074 1.63914 4.54492 4.54495C1.63911 7.45077 0.004616 11.3906 0 15.5V533.467C0.004616 537.576 1.63911 541.516 4.54492 544.422C7.45074 547.328 11.3906 548.962 15.5 548.967H410.373C414.483 548.962 418.423 547.328 421.328 544.422C424.234 541.516 425.869 537.576 425.873 533.467V15.5C425.869 11.3906 424.234 7.45078 421.328 4.54497C418.423 1.63916 414.483 0.00463713 410.373 0H15.5Z" fill="#E6E6E6"/>
<path d="M398.518 208.356H27.3594C22.9848 208.351 18.7909 206.611 15.6976 203.518C12.6043 200.424 10.8643 196.23 10.8594 191.856V86.082C10.8643 81.7075 12.6043 77.5135 15.6976 74.4202C18.7909 71.3269 22.9848 69.587 27.3594 69.582H398.518C402.893 69.5869 407.087 71.3268 410.18 74.4201C413.273 77.5134 415.013 81.7074 415.018 86.082V191.856C415.013 196.231 413.273 200.425 410.18 203.518C407.087 206.611 402.893 208.351 398.518 208.356Z" fill="white"/>
<path d="M398.518 369.845H27.3594C22.9848 369.84 18.7909 368.1 15.6976 365.007C12.6043 361.913 10.8643 357.719 10.8594 353.345V247.57C10.8643 243.196 12.6043 239.002 15.6976 235.909C18.7909 232.815 22.9848 231.075 27.3594 231.07H398.518C402.893 231.075 407.087 232.815 410.18 235.908C413.273 239.002 415.013 243.196 415.018 247.57V353.345C415.013 357.719 413.273 361.913 410.18 365.007C407.087 368.1 402.893 369.84 398.518 369.845Z" fill="white"/>
<path d="M27.3594 393.561C23.2499 393.565 19.3101 395.2 16.4043 398.105C13.4985 401.011 11.864 404.951 11.8594 409.061V514.834C11.864 518.943 13.4985 522.883 16.4043 525.789C19.3101 528.695 23.2499 530.329 27.3594 530.334H398.518C402.628 530.329 406.567 528.695 409.473 525.789C412.379 522.883 414.013 518.943 414.018 514.834V409.061C414.013 404.951 412.379 401.011 409.473 398.105C406.567 395.2 402.628 393.565 398.518 393.561H27.3594Z" fill="white"/>
<path d="M403.789 32.2499C410.026 32.2499 415.082 27.1939 415.082 20.957C415.082 14.7201 410.026 9.66406 403.789 9.66406C397.552 9.66406 392.496 14.7201 392.496 20.957C392.496 27.1939 397.552 32.2499 403.789 32.2499Z" fill="white"/>
<path d="M48.3437 311.75C54.5806 311.75 59.6367 306.694 59.6367 300.457C59.6367 294.22 54.5806 289.164 48.3437 289.164C42.1068 289.164 37.0508 294.22 37.0508 300.457C37.0508 306.694 42.1068 311.75 48.3437 311.75Z" fill="#E6E6E6"/>
<path d="M178.209 309.99H90.124C87.5954 309.99 85.1703 308.986 83.3823 307.198C81.5943 305.41 80.5898 302.985 80.5898 300.456C80.5898 297.927 81.5943 295.502 83.3823 293.714C85.1703 291.926 87.5954 290.922 90.124 290.922H178.209C180.738 290.922 183.163 291.926 184.951 293.714C186.739 295.502 187.743 297.927 187.743 300.456C187.743 302.985 186.739 305.41 184.951 307.198C183.163 308.986 180.738 309.99 178.209 309.99Z" fill="#E6E6E6"/>
<path d="M249.074 312.314C255.311 312.314 260.367 307.258 260.367 301.021C260.367 294.785 255.311 289.729 249.074 289.729C242.837 289.729 237.781 294.785 237.781 301.021C237.781 307.258 242.837 312.314 249.074 312.314Z" fill="#E6E6E6"/>
<path d="M378.944 310.557H290.859C288.33 310.557 285.905 309.553 284.117 307.765C282.329 305.977 281.324 303.551 281.324 301.023C281.324 298.494 282.329 296.069 284.117 294.281C285.905 292.493 288.33 291.488 290.859 291.488H378.944C381.472 291.488 383.897 292.493 385.685 294.281C387.474 296.069 388.478 298.494 388.478 301.023C388.478 303.551 387.474 305.977 385.685 307.765C383.897 309.553 381.472 310.557 378.944 310.557Z" fill="#E6E6E6"/>
<path d="M409.667 16.6732L408.07 15.0762L403.787 19.3602L399.503 15.0762L397.906 16.6732L402.19 20.9572L397.906 25.2402L399.503 26.8372L403.787 22.5532L408.07 26.8372L409.667 25.2402L405.384 20.9572L409.667 16.6732Z" fill="#E6E6E6"/>
<path d="M48.3437 150.262C54.5807 150.262 59.6367 145.206 59.6367 138.969C59.6367 132.732 54.5807 127.676 48.3437 127.676C42.1068 127.676 37.0508 132.732 37.0508 138.969C37.0508 145.206 42.1068 150.262 48.3437 150.262Z" fill="#E6E6E6"/>
<path d="M379.789 147.374H111.017C108.49 147.371 106.067 146.365 104.281 144.578C102.495 142.79 101.492 140.366 101.492 137.839C101.492 135.312 102.495 132.888 104.281 131.101C106.067 129.313 108.49 128.307 111.017 128.305H379.789C382.316 128.307 384.739 129.313 386.525 131.101C388.311 132.888 389.314 135.312 389.314 137.839C389.314 140.366 388.311 142.79 386.525 144.578C384.739 146.365 382.316 147.371 379.789 147.374Z" fill="#E6E6E6"/>
<path d="M332.926 147.374H93.5149C90.9862 147.374 88.5611 146.369 86.773 144.581C84.985 142.793 83.9805 140.368 83.9805 137.839C83.9805 135.31 84.985 132.885 86.773 131.097C88.5611 129.309 90.9862 128.305 93.5149 128.305H332.926C335.453 128.307 337.875 129.313 339.661 131.101C341.447 132.888 342.45 135.312 342.45 137.839C342.45 140.366 341.447 142.79 339.661 144.578C337.875 146.365 335.453 147.371 332.926 147.374Z" fill="#6C63FF"/>
<path d="M48.3437 473.238C54.5806 473.238 59.6367 468.182 59.6367 461.945C59.6367 455.708 54.5806 450.652 48.3437 450.652C42.1068 450.652 37.0508 455.708 37.0508 461.945C37.0508 468.182 42.1068 473.238 48.3437 473.238Z" fill="#E6E6E6"/>
<path d="M379.791 470.352H111.019C108.49 470.352 106.065 469.347 104.277 467.559C102.489 465.771 101.484 463.346 101.484 460.817C101.484 458.289 102.489 455.864 104.277 454.076C106.065 452.288 108.49 451.283 111.019 451.283H379.791C382.32 451.283 384.745 452.288 386.533 454.076C388.321 455.864 389.325 458.289 389.325 460.817C389.325 463.346 388.321 465.771 386.533 467.559C384.745 469.347 382.32 470.352 379.791 470.352Z" fill="#E6E6E6"/>
<path d="M236.653 470.352H93.5146C90.986 470.352 88.561 469.347 86.7729 467.559C84.9849 465.771 83.9805 463.346 83.9805 460.817C83.9805 458.289 84.9849 455.864 86.7729 454.076C88.561 452.288 90.986 451.283 93.5146 451.283H236.653C239.181 451.283 241.606 452.288 243.394 454.076C245.182 455.864 246.187 458.289 246.187 460.817C246.187 463.346 245.182 465.771 243.394 467.559C241.606 469.347 239.181 470.352 236.653 470.352Z" fill="#6C63FF"/>
<path d="M105.652 309.99H90.124C87.5954 309.99 85.1704 308.986 83.3824 307.198C81.5943 305.41 80.5898 302.985 80.5898 300.456C80.5898 297.927 81.5943 295.502 83.3824 293.714C85.1704 291.926 87.5954 290.922 90.124 290.922H105.652C108.18 290.922 110.606 291.926 112.394 293.714C114.182 295.502 115.186 297.927 115.186 300.456C115.186 302.985 114.182 305.41 112.394 307.198C110.606 308.986 108.18 309.99 105.652 309.99Z" fill="#6C63FF"/>
<path d="M339.418 310.557H290.859C288.33 310.557 285.905 309.553 284.117 307.765C282.329 305.977 281.324 303.551 281.324 301.023C281.324 298.494 282.329 296.069 284.117 294.281C285.905 292.493 288.33 291.488 290.859 291.488H339.418C341.945 291.491 344.368 292.497 346.154 294.284C347.94 296.072 348.943 298.496 348.943 301.023C348.943 303.55 347.94 305.973 346.154 307.761C344.368 309.549 341.945 310.555 339.418 310.557Z" fill="#6C63FF"/>
<path d="M577.777 424.816C579.24 424.669 580.652 424.203 581.915 423.451C583.178 422.699 584.261 421.679 585.088 420.463C585.914 419.247 586.464 417.865 586.698 416.414C586.932 414.962 586.845 413.477 586.444 412.063L615.718 391.569L598.453 384.732L573.3 405.242C570.969 406.074 569.025 407.733 567.835 409.903C566.645 412.073 566.293 414.605 566.844 417.017C567.396 419.43 568.814 421.557 570.829 422.994C572.844 424.431 575.316 425.08 577.777 424.816Z" fill="#A0616A"/>
<path d="M591.424 409.851C590.794 409.849 590.172 409.716 589.597 409.46C588.946 409.176 588.372 408.74 587.923 408.189C587.475 407.638 587.165 406.988 587.019 406.292L585.053 397.165C584.886 396.383 584.929 395.569 585.18 394.809C585.43 394.049 585.878 393.369 586.479 392.84L603.839 377.554L586.702 341.649C585.51 339.152 585.306 336.297 586.13 333.656C586.954 331.014 588.745 328.782 591.145 327.406C593.546 326.03 596.377 325.612 599.073 326.235C601.768 326.859 604.129 328.478 605.681 330.768L627.627 363.139C629.258 365.523 630.383 368.215 630.933 371.051C631.483 373.886 631.445 376.804 630.824 379.625C630.135 382.606 628.834 385.411 627.003 387.863C625.171 390.314 622.85 392.357 620.187 393.862L593.676 409.238C592.992 409.638 592.215 409.849 591.424 409.851Z" fill="#CCCCCC"/>
<path d="M494.16 390.336C495.383 391.152 496.77 391.691 498.223 391.913C499.676 392.136 501.16 392.037 502.571 391.623C503.982 391.21 505.285 390.492 506.388 389.521C507.492 388.55 508.369 387.348 508.958 386.001L544.583 388.791L535.602 372.538L503.148 372.38C500.82 371.541 498.264 371.585 495.966 372.504C493.668 373.423 491.787 375.153 490.679 377.366C489.571 379.579 489.313 382.122 489.955 384.513C490.597 386.903 492.093 388.975 494.16 390.336Z" fill="#A0616A"/>
<path d="M579.354 305.233C592.919 305.233 603.915 294.237 603.915 280.672C603.915 267.108 592.919 256.111 579.354 256.111C565.789 256.111 554.793 267.108 554.793 280.672C554.793 294.237 565.789 305.233 579.354 305.233Z" fill="#A0616A"/>
<path d="M507.039 616.668L495.289 613.172L503.182 566.184L520.525 571.345L507.039 616.668Z" fill="#A0616A"/>
<path d="M506.647 628.951L468.758 617.677L468.9 617.198C469.477 615.261 470.429 613.457 471.702 611.888C472.975 610.32 474.545 609.017 476.322 608.055C478.099 607.093 480.048 606.49 482.058 606.282C484.068 606.073 486.099 606.262 488.035 606.838L488.036 606.838L511.178 613.724L506.647 628.951Z" fill="#2F2E41"/>
<path d="M635.78 616.066L623.52 616.065L617.688 568.777L629.782 568.778L635.78 616.066Z" fill="#A0616A"/>
<path d="M638.906 627.95L599.375 627.949V627.449C599.375 625.428 599.773 623.427 600.546 621.561C601.319 619.694 602.453 617.998 603.882 616.569C605.31 615.14 607.007 614.007 608.873 613.234C610.74 612.46 612.741 612.062 614.761 612.063L638.906 612.064L638.906 627.95Z" fill="#2F2E41"/>
<path d="M511.559 602.766H499.25C498.59 602.766 497.938 602.62 497.341 602.34C496.743 602.06 496.215 601.652 495.792 601.145C495.37 600.638 495.065 600.045 494.897 599.407C494.73 598.768 494.705 598.101 494.824 597.452L512.065 503.586C512.048 435.199 538.955 395.589 539.226 395.196L539.555 394.723L589.842 398.826L639.965 596.37C640.129 597.016 640.147 597.691 640.019 598.345C639.89 599 639.618 599.617 639.221 600.153C638.825 600.689 638.314 601.13 637.726 601.445C637.138 601.759 636.488 601.939 635.822 601.972L621.991 602.643C621.055 602.691 620.127 602.445 619.338 601.939C618.55 601.432 617.94 600.691 617.595 599.819L564.606 467.352C564.501 467.062 564.305 466.814 564.048 466.644C563.791 466.474 563.486 466.392 563.179 466.409C562.872 466.412 562.574 466.511 562.326 466.691C562.078 466.872 561.893 467.125 561.796 467.416L515.81 599.743C515.503 600.626 514.928 601.391 514.167 601.932C513.405 602.474 512.494 602.765 511.559 602.766Z" fill="#2F2E41"/>
<path d="M590.894 402.792L590.509 402.764L536.969 398.723L546.36 338.994C547.391 332.326 550.55 326.171 555.365 321.446C560.181 316.722 566.396 313.681 573.082 312.779C573.493 312.721 573.907 312.665 574.324 312.61C579.577 311.919 584.918 312.59 589.837 314.558C594.755 316.526 599.085 319.726 602.41 323.85C605.815 327.998 608.095 332.951 609.033 338.234C609.971 343.518 609.534 348.953 607.765 354.019L590.894 402.792Z" fill="#CCCCCC"/>
<path d="M563.66 387.196C561.487 388.941 558.99 390.24 556.314 391.019C553.638 391.797 550.834 392.039 548.064 391.731L517.077 388.396C516.369 388.32 515.689 388.076 515.093 387.686C514.497 387.295 514.002 386.769 513.649 386.15C513.296 385.531 513.096 384.837 513.063 384.126C513.031 383.414 513.168 382.705 513.463 382.056L517.596 372.985C517.932 372.246 518.462 371.611 519.13 371.149C519.798 370.687 520.579 370.414 521.389 370.36L543.975 368.846L551.389 329.765C551.868 327.256 553.206 324.993 555.173 323.364C557.14 321.735 559.613 320.842 562.167 320.84C563.71 320.833 565.237 321.155 566.646 321.784C568.054 322.414 569.313 323.336 570.337 324.49C572.278 326.712 573.276 329.604 573.116 332.551L571.68 371.298C571.584 374.228 570.88 377.106 569.612 379.749C568.345 382.392 566.541 384.743 564.316 386.652C564.1 386.838 563.881 387.019 563.66 387.196Z" fill="#CCCCCC"/>
<path d="M560.68 274.537C557.622 275.723 554.4 276.433 551.126 276.64C547.833 276.681 544.333 275.54 542.531 273.032C541.84 271.937 541.394 270.705 541.223 269.421C541.052 268.137 541.161 266.831 541.542 265.593C542.224 263.083 543.452 260.755 545.138 258.775C546.824 256.794 548.926 255.21 551.295 254.136C553.783 253.007 556.471 252.381 559.202 252.293C561.934 252.205 564.656 252.657 567.212 253.624C569.06 248.006 576.02 244.949 582.463 244.776C595.622 244.423 607.389 253.396 613.106 264.185C618.824 274.975 619.659 287.308 620.015 299.282C620.102 302.203 620.138 305.247 618.755 307.884C616.695 311.809 612.014 313.924 607.602 315.6C596.033 319.989 584.097 323.345 571.935 325.626C577.774 321.894 579.627 313.86 575.928 308.307C574.118 305.59 571.147 303.328 570.666 300.182C570.089 296.409 573.308 293.109 574.499 289.457C575.101 287.48 575.128 285.373 574.578 283.381C574.027 281.389 572.922 279.595 571.39 278.207C569.723 276.759 567.73 275.737 565.581 275.227C563.432 274.718 561.192 274.736 559.052 275.282" fill="#2F2E41"/>
<path d="M655.816 629.537H448.816C448.551 629.537 448.297 629.432 448.109 629.244C447.922 629.057 447.816 628.802 447.816 628.537C447.816 628.272 447.922 628.018 448.109 627.83C448.297 627.642 448.551 627.537 448.816 627.537H655.816C656.082 627.537 656.336 627.642 656.523 627.83C656.711 628.018 656.816 628.272 656.816 628.537C656.816 628.802 656.711 629.057 656.523 629.244C656.336 629.432 656.082 629.537 655.816 629.537Z" fill="#CCCCCC"/>
</g>
<defs>
<clipPath id="clip0_138_3035">
<rect width="656.816" height="629.537" fill="white"/>
</clipPath>
</defs>
</svg>
