<svg width="460" height="554" viewBox="0 0 460 554" fill="none" xmlns="http://www.w3.org/2000/svg">
<g clip-path="url(#clip0_138_2935)">
<path d="M3.28871 264.971C4.97836 267.793 7.26617 270.21 9.99099 272.052C12.7158 273.894 15.8114 275.116 19.0596 275.632C22.3079 276.148 25.6298 275.946 28.7914 275.039C31.953 274.133 34.8774 272.544 37.3586 270.385L106.711 310.161L104.126 268.696L38.6643 237.281C34.7611 233.353 29.5526 230.994 24.0259 230.649C18.4991 230.305 13.0381 232 8.67761 235.413C4.31711 238.826 1.36008 243.72 0.366875 249.168C-0.626333 254.616 0.413279 260.238 3.28871 264.971Z" fill="#FFB8B8"/>
<path d="M204.07 424.313C183.498 453.107 184.234 501.278 189.973 554.001H287.239L291.468 544.133L297.106 554.001H388.734C388.734 554.001 381.685 420.084 368.998 415.855C356.312 411.626 204.07 424.313 204.07 424.313Z" fill="#2F2E41"/>
<path d="M287.236 123.484C314.485 123.484 336.574 101.395 336.574 74.1463C336.574 46.8978 314.485 24.8086 287.236 24.8086C259.988 24.8086 237.898 46.8978 237.898 74.1463C237.898 101.395 259.988 123.484 287.236 123.484Z" fill="#FFB8B8"/>
<path d="M322.899 136.283L332.547 154.776L399.281 184.524L381.739 354.282L374.356 371.861L378.345 387.127L368.728 398.394C378.382 407.128 379.608 416.272 374.356 425.73L343.625 432.77C343.625 432.77 172.754 447.964 187.154 421.493C202.889 392.569 206.896 307.149 172.16 261.502C142.671 222.75 165.311 172.464 165.311 172.464L235.261 151.56L260.989 136.283L322.899 136.283Z" fill="#3F3D56"/>
<path d="M309.14 1.87347C309.372 1.38292 309.745 0.972868 310.212 0.695973C310.678 0.419078 311.217 0.287979 311.759 0.319518C289.171 -1.03161 265.379 1.60105 246.482 14.0484C241.904 17.064 237.588 20.6609 232.606 22.8484C232.371 22.9541 232.167 23.1188 232.015 23.3265C231.862 23.5342 231.766 23.7778 231.735 24.0337C231.704 24.2897 231.74 24.5492 231.839 24.7871C231.939 25.025 232.098 25.2333 232.301 25.3916L232.848 25.8207C233.064 25.99 233.229 26.2152 233.326 26.4719C233.423 26.7286 233.447 27.0069 233.397 27.2766C233.347 27.5463 233.223 27.797 233.041 28.0015C232.858 28.206 232.622 28.3564 232.36 28.4364C232.086 28.5198 231.842 28.6796 231.656 28.8971C231.471 29.1145 231.351 29.3805 231.311 29.6638C231.272 29.947 231.314 30.2356 231.433 30.4957C231.552 30.7558 231.743 30.9764 231.983 31.1316L236.176 33.8418C236.387 33.9758 236.561 34.1608 236.682 34.3797C236.804 34.5986 236.868 34.8444 236.869 35.0946C236.87 35.3447 236.809 35.5912 236.69 35.8114C236.572 36.0317 236.399 36.2185 236.19 36.3549C235.835 36.5743 235.462 36.7634 235.075 36.9203C234.834 37.0107 234.621 37.1616 234.455 37.3585C234.29 37.5553 234.178 37.7914 234.13 38.0441C234.082 38.2968 234.101 38.5575 234.183 38.8011C234.265 39.0447 234.409 39.263 234.6 39.4349C236.416 41.0514 237.809 43.0875 238.657 45.3658C240.055 48.9998 240.306 52.9575 240.542 56.8438C241.987 51.2363 248.106 47.9355 253.887 47.6001C259.668 47.2647 265.306 49.172 270.932 50.5432C283.185 53.5208 295.911 54.0104 308.357 51.9829C304.131 60.4643 307.696 70.5808 311.283 79.3515L322.896 74.3742C338.844 65.3717 327.735 103.454 321.773 108.682C333.947 112.902 365.811 66.0577 355.56 48.2884C350.228 39.045 354.013 27.1234 343.53 18.3567C338.392 12.948 328.134 15.352 322.896 10.8567C320.834 9.08738 323.977 4.3539 321.143 3.32232C320.202 2.97969 309.296 1.52814 309.14 1.87347Z" fill="#2F2E41"/>
<path d="M225.572 156.336C216.519 196.529 193.299 290.374 169.741 310C168.247 311.411 166.456 312.469 164.499 313.096C81.6928 333.269 55.1602 281.811 55.1602 281.811C55.1602 281.811 77.3511 270.997 77.9139 249.86L122.666 263.745L161.677 175.954L167.417 170.599L167.449 170.567L225.572 156.336Z" fill="#3F3D56"/>
<path d="M402.127 527.497C404.498 525.218 406.341 522.447 407.525 519.378C408.709 516.31 409.206 513.019 408.981 509.738C408.755 506.456 407.814 503.264 406.221 500.387C404.629 497.509 402.425 495.015 399.765 493.081L422.978 416.576L383.148 428.392L367.211 499.231C364.258 503.916 363.126 509.52 364.03 514.984C364.934 520.447 367.81 525.389 372.114 528.873C376.418 532.357 381.85 534.142 387.382 533.888C392.913 533.635 398.16 531.361 402.127 527.497Z" fill="#FFB8B8"/>
<path d="M380.879 180.244L399.278 184.524C399.278 184.524 475.325 332.486 457 360.679C438.674 388.872 416.224 482.212 416.224 482.212C416.224 482.212 383.02 475.611 370.333 458.695L393.566 347.992L369.602 254.956L380.879 180.244Z" fill="#3F3D56"/>
<path d="M31.8242 399.966L32.4849 161.663C32.5037 156.84 34.435 152.221 37.855 148.82C41.275 145.419 45.9044 143.514 50.7277 143.522L230.699 144.02C235.522 144.039 240.141 145.971 243.542 149.391C246.943 152.811 248.848 157.44 248.841 162.263L248.18 400.565C248.161 405.389 246.23 410.007 242.81 413.409C239.39 416.81 234.76 418.715 229.937 418.707L49.9661 418.208C45.1429 418.19 40.5241 416.258 37.123 412.838C33.7219 409.418 31.8163 404.789 31.8242 399.966Z" fill="#E6E6E6"/>
<path d="M45.8282 328.025L46.253 174.822C46.2705 170.305 48.0792 165.98 51.2821 162.794C54.4851 159.609 58.8207 157.825 63.3379 157.832L218.008 158.261C222.525 158.278 226.851 160.087 230.036 163.29C233.222 166.493 235.006 170.829 234.999 175.346L234.411 387.402C234.393 391.92 232.585 396.245 229.382 399.43C226.178 402.616 221.843 404.4 217.325 404.393L121.511 404.127C101.39 404.049 82.1216 395.992 67.9333 381.725C53.745 367.458 45.7953 348.146 45.8282 328.025Z" fill="white"/>
<path d="M200.284 225.129H79.6815C77.7623 225.129 75.9218 224.366 74.5647 223.009C73.2077 221.652 72.4453 219.812 72.4453 217.892C72.4453 215.973 73.2077 214.133 74.5647 212.776C75.9218 211.419 77.7623 210.656 79.6815 210.656H200.284C202.204 210.656 204.044 211.419 205.401 212.776C206.758 214.133 207.521 215.973 207.521 217.892C207.521 219.812 206.758 221.652 205.401 223.009C204.044 224.366 202.204 225.129 200.284 225.129Z" fill="#6C63FF"/>
<path d="M106.214 191.761H79.6815C77.7623 191.761 75.9218 190.999 74.5647 189.642C73.2077 188.285 72.4453 186.444 72.4453 184.525C72.4453 182.606 73.2077 180.766 74.5647 179.408C75.9218 178.051 77.7623 177.289 79.6815 177.289H106.214C108.133 177.289 109.974 178.051 111.331 179.408C112.688 180.766 113.45 182.606 113.45 184.525C113.45 186.444 112.688 188.285 111.331 189.642C109.974 190.999 108.133 191.761 106.214 191.761Z" fill="#6C63FF"/>
<path d="M200.284 258.496H79.6815C77.7623 258.496 75.9218 257.733 74.5647 256.376C73.2077 255.019 72.4453 253.179 72.4453 251.26C72.4453 249.34 73.2077 247.5 74.5647 246.143C75.9218 244.786 77.7623 244.023 79.6815 244.023H200.284C202.204 244.023 204.044 244.786 205.401 246.143C206.758 247.5 207.521 249.34 207.521 251.26C207.521 253.179 206.758 255.019 205.401 256.376C204.044 257.733 202.204 258.496 200.284 258.496Z" fill="#6C63FF"/>
<path d="M200.284 291.863H79.6815C77.7623 291.863 75.9218 291.101 74.5647 289.744C73.2077 288.387 72.4453 286.546 72.4453 284.627C72.4453 282.708 73.2077 280.867 74.5647 279.51C75.9218 278.153 77.7623 277.391 79.6815 277.391H200.284C202.204 277.391 204.044 278.153 205.401 279.51C206.758 280.867 207.521 282.708 207.521 284.627C207.521 286.546 206.758 288.387 205.401 289.744C204.044 291.101 202.204 291.863 200.284 291.863Z" fill="#6C63FF"/>
<path d="M190.527 379.783C206.429 379.783 219.32 366.892 219.32 350.99C219.32 335.088 206.429 322.197 190.527 322.197C174.625 322.197 161.734 335.088 161.734 350.99C161.734 366.892 174.625 379.783 190.527 379.783Z" fill="#6C63FF"/>
<path d="M186.599 365.975C186.102 365.975 185.611 365.86 185.167 365.637C184.722 365.415 184.335 365.092 184.037 364.694L176.182 354.22C175.929 353.884 175.745 353.501 175.64 353.093C175.535 352.686 175.512 352.261 175.571 351.845C175.63 351.428 175.771 351.027 175.985 350.665C176.2 350.303 176.483 349.986 176.82 349.734C177.157 349.481 177.54 349.297 177.948 349.193C178.356 349.089 178.78 349.066 179.197 349.126C179.613 349.185 180.014 349.327 180.376 349.541C180.738 349.756 181.054 350.04 181.306 350.377L186.445 357.229L199.645 337.431C199.877 337.079 200.177 336.777 200.527 336.542C200.876 336.307 201.269 336.143 201.682 336.059C202.095 335.976 202.521 335.975 202.934 336.056C203.348 336.138 203.741 336.3 204.092 336.534C204.442 336.768 204.743 337.068 204.978 337.419C205.212 337.769 205.375 338.162 205.457 338.576C205.539 338.989 205.538 339.415 205.456 339.828C205.373 340.241 205.209 340.634 204.974 340.984L189.264 364.549C188.98 364.975 188.598 365.327 188.15 365.575C187.701 365.823 187.2 365.96 186.688 365.974C186.658 365.975 186.629 365.975 186.599 365.975Z" fill="white"/>
<path d="M129.129 88.0437C136.678 88.0437 142.798 81.9242 142.798 74.3754C142.798 66.8266 136.678 60.707 129.129 60.707C121.58 60.707 115.461 66.8266 115.461 74.3754C115.461 81.9242 121.58 88.0437 129.129 88.0437Z" fill="#F2F2F2"/>
<path d="M79.2777 481.21C86.8265 481.21 92.946 475.09 92.946 467.541C92.946 459.993 86.8265 453.873 79.2777 453.873C71.7289 453.873 65.6094 459.993 65.6094 467.541C65.6094 475.09 71.7289 481.21 79.2777 481.21Z" fill="#F2F2F2"/>
<path d="M393.653 141.108C401.202 141.108 407.321 134.989 407.321 127.44C407.321 119.891 401.202 113.771 393.653 113.771C386.104 113.771 379.984 119.891 379.984 127.44C379.984 134.989 386.104 141.108 393.653 141.108Z" fill="#F2F2F2"/>
</g>
<defs>
<clipPath id="clip0_138_2935">
<rect width="459.851" height="554" fill="white"/>
</clipPath>
</defs>
</svg>
