<svg width="380" height="485" viewBox="0 0 380 485" fill="none" xmlns="http://www.w3.org/2000/svg">
<path d="M42.1466 21.0732C18.869 21.0732 0 40.0392 0 63.2198V231.806V316.099V442.539C0 465.72 18.869 484.686 42.1466 484.686H337.173C360.459 484.686 379.319 465.72 379.319 442.539V316.099V231.806V147.513L252.88 21.0732H42.1466Z" fill="#C0392B"/>
<path d="M42.1466 0C18.869 0 0 18.966 0 42.1466V210.733V295.026V421.466C0 444.647 18.869 463.613 42.1466 463.613H337.173C360.459 463.613 379.319 444.647 379.319 421.466V295.026V210.733V126.44L252.88 0H42.1466Z" fill="#E74C3C"/>
<path d="M379.319 126.44L252.879 0V84.2932C252.879 107.474 271.74 126.44 295.026 126.44H379.319Z" fill="#C0392B"/>
<path d="M339.534 210.733H333.422C331.526 212.841 320.757 227.592 316.1 231.807C314.836 233.914 312.939 236.02 311.864 236.02C296.207 254.986 262.911 286.598 242.934 303.456C240.321 305.564 237.792 307.67 237.328 307.67C235.937 309.777 222.619 318.206 216.634 322.42C197.563 335.064 175.183 345.602 157.798 349.817C123.488 358.246 96.7187 356.139 61.9646 339.28C51.4617 335.065 36.4975 326.636 28.2937 320.314C20.2437 313.992 21.0929 313.993 21.1056 324.53V335.066L26.5383 337.173C33.5072 341.388 48.5493 349.816 58.3569 354.03C65.8294 358.245 68.1581 360.353 63.9771 360.353C60.1249 358.246 38.2635 358.246 29.8636 360.353H21.4343C21.2405 360.353 21.0824 364.568 21.0824 368.783V377.213H23.8915C35.9791 372.998 61.9225 372.996 73.9996 375.104C88.2198 377.211 98.2254 379.318 110.244 385.64C133.173 396.177 152.192 417.25 160.474 438.323L162.16 442.54H171.432H180.704L180.198 440.433C177.227 427.789 168.882 413.037 158.556 402.5C151.771 394.071 139.786 385.641 135.064 381.427H133.471C132.703 379.319 124.693 375.104 121.271 375.104C119.324 372.996 117.737 372.997 117.737 372.997C117.737 370.889 119.212 370.889 121.014 372.997C125.513 372.997 143.632 370.89 151.834 368.783C174.551 364.568 196.046 356.138 217.772 343.494C225.569 339.279 243.271 324.528 250.351 320.314C255.62 313.992 257.306 313.993 255.156 316.1C254.398 318.207 252.943 320.313 251.89 322.42C250.857 324.528 249.045 326.636 247.886 328.743C231.491 354.031 220.975 385.642 218.13 421.466C217.73 427.788 217.393 434.109 217.393 436.217V442.54H266.536H315.679L314.077 440.433C305.226 427.789 294.247 400.393 290.559 381.427C287.525 366.675 286.619 343.494 288.515 330.85C294.036 297.133 312.855 267.63 345.181 248.664C348.511 246.556 352.81 244.451 354.728 242.343L358.247 240.237V233.914C358.247 229.699 357.994 225.484 357.678 225.484C350.007 229.698 332.938 240.236 325.098 244.45C320.905 248.665 320.652 248.665 324.593 244.45C330.24 238.128 339.976 227.591 350.323 214.947L355.149 210.733H344.591H339.534Z" fill="#ECF0F1"/>
</svg>
