<svg width="100" height="100" viewBox="0 0 100 100" fill="none" xmlns="http://www.w3.org/2000/svg">
<path d="M56.25 87.5V76.5625H43.75V87.5H36.0531C34.7793 87.5 33.5576 88.006 32.6568 88.9068C31.756 89.8076 31.25 91.0293 31.25 92.3031V95.3125H68.75V92.3031C68.75 91.0293 68.244 89.8076 67.3432 88.9068C66.4424 88.006 65.2207 87.5 63.9469 87.5H56.25Z" fill="#E5E6EB"/>
<path d="M56.25 76.5625H53.125V87.5H56.25V76.5625Z" fill="#CFCFD9"/>
<path d="M63.9492 87.5H60.8242C62.0977 87.5 63.319 88.0059 64.2194 88.9063C65.1199 89.8068 65.6258 91.0281 65.6258 92.3016V95.3125H68.7508V92.3016C68.7508 91.0281 68.2449 89.8068 67.3444 88.9063C66.444 88.0059 65.2227 87.5 63.9492 87.5Z" fill="#CFCFD9"/>
<path d="M89.1875 17.1875H10.8125C7.42976 17.1875 4.6875 19.9298 4.6875 23.3125V73.5625C4.6875 76.9452 7.42976 79.6875 10.8125 79.6875H89.1875C92.5702 79.6875 95.3125 76.9452 95.3125 73.5625V23.3125C95.3125 19.9298 92.5702 17.1875 89.1875 17.1875Z" fill="#D9DAE2"/>
<path d="M91.6586 17.7158C92.0052 18.4939 92.1851 19.3359 92.1867 20.1877V70.4377C92.1867 72.0621 91.5414 73.6201 90.3927 74.7687C89.2441 75.9174 87.6862 76.5627 86.0617 76.5627H7.68672C6.83493 76.5611 5.99291 76.3812 5.21484 76.0346C5.69335 77.1204 6.47711 78.0437 7.47076 78.6923C8.46441 79.3409 9.62513 79.6867 10.8117 79.6877H89.1867C90.8112 79.6877 92.3691 79.0424 93.5177 77.8937C94.6664 76.7451 95.3117 75.1871 95.3117 73.5627V23.3127C95.3107 22.1261 94.9649 20.9654 94.3163 19.9717C93.6678 18.9781 92.7444 18.1943 91.6586 17.7158Z" fill="#CFCFD9"/>
<path d="M12.7859 23.4375H87.2141C87.7043 23.4375 88.1745 23.6322 88.5211 23.9789C88.8678 24.3255 89.0625 24.7957 89.0625 25.2859V67.1875H10.9375V25.2859C10.9375 24.7957 11.1322 24.3255 11.4789 23.9789C11.8255 23.6322 12.2957 23.4375 12.7859 23.4375Z" fill="black"/>
<path d="M12.7859 23.4375H87.2141C87.7043 23.4375 88.1745 23.6322 88.5211 23.9789C88.8678 24.3255 89.0625 24.7957 89.0625 25.2859C89.0625 30.7885 87.9787 36.2372 85.8729 41.321C83.7672 46.4047 80.6807 51.0239 76.7898 54.9148C68.9317 62.7729 58.2739 67.1875 47.1609 67.1875H10.9375V25.2859C10.9375 24.7957 11.1322 24.3255 11.4789 23.9789C11.8255 23.6322 12.2957 23.4375 12.7859 23.4375Z" fill="#444444"/>
<path d="M20.3125 4.68755H38.6828C42.8994 4.67702 46.9558 6.30119 50 9.2188C53.0442 6.30119 57.1007 4.67702 61.3172 4.68755H79.6875V45.3125H20.3125V4.68755Z" fill="#027DE5"/>
<path d="M61.3172 4.68755C57.1006 4.67702 53.0442 6.30119 50 9.2188C46.9558 6.30119 42.8994 4.67702 38.6828 4.68755H26.5625V35.9376H73.4375V4.68755H61.3172Z" fill="#CCEAFF"/>
<path d="M53.125 34.3748V6.88574C51.9915 7.53211 50.9419 8.31561 50 9.21855V34.3748H26.5625V40.6248H73.4375V34.3748H53.125Z" fill="#85B4E0"/>
<path d="M29.6875 14.0625V7.8125H35.9375L29.6875 14.0625Z" fill="white"/>
<path d="M57.8125 54.0406L55.4859 56.3672C55.2261 56.2931 54.9577 56.2537 54.6875 56.25C54.0694 56.25 53.4652 56.4333 52.9513 56.7767C52.4374 57.12 52.0369 57.6081 51.8004 58.1791C51.5639 58.7501 51.502 59.3785 51.6225 59.9847C51.7431 60.5909 52.0408 61.1477 52.4778 61.5847C52.9148 62.0217 53.4717 62.3194 54.0778 62.44C54.684 62.5605 55.3124 62.4986 55.8834 62.2621C56.4544 62.0256 56.9425 61.6251 57.2858 61.1112C57.6292 60.5973 57.8125 59.9931 57.8125 59.375C57.8088 59.1048 57.7694 58.8364 57.6953 58.5766L60.4797 55.7922C60.7727 55.4992 60.9374 55.1019 60.9375 54.6875V43.75H57.8125V54.0406Z" fill="#027DE5"/>
<path d="M68.75 56.6844V43.75H65.625V56.6844C65.0292 57.0283 64.5636 57.5593 64.3004 58.1948C64.0371 58.8304 63.9909 59.535 64.169 60.1995C64.347 60.864 64.7394 61.4512 65.2851 61.8699C65.8309 62.2887 66.4996 62.5157 67.1875 62.5157C67.8754 62.5157 68.5441 62.2887 69.0899 61.8699C69.6356 61.4512 70.028 60.864 70.206 60.1995C70.3841 59.535 70.3379 58.8304 70.0746 58.1948C69.8114 57.5593 69.3458 57.0283 68.75 56.6844Z" fill="#027DE5"/>
<path d="M76.5625 51.9969V43.75H73.4375V51.9969C72.8417 52.3408 72.3761 52.8718 72.1129 53.5073C71.8496 54.1429 71.8034 54.8475 71.9815 55.512C72.1595 56.1765 72.5519 56.7637 73.0976 57.1824C73.6434 57.6012 74.3121 57.8282 75 57.8282C75.6879 57.8282 76.3566 57.6012 76.9024 57.1824C77.4481 56.7637 77.8405 56.1765 78.0185 55.512C78.1966 54.8475 78.1504 54.1429 77.8871 53.5073C77.6239 52.8718 77.1583 52.3408 76.5625 51.9969Z" fill="#027DE5"/>
<path d="M45.3125 53.5594V43.75H42.1875V53.5594C41.5917 53.9033 41.1261 54.4343 40.8629 55.0698C40.5996 55.7054 40.5534 56.41 40.7315 57.0745C40.9095 57.739 41.3019 58.3262 41.8476 58.7449C42.3934 59.1637 43.0621 59.3907 43.75 59.3907C44.4379 59.3907 45.1066 59.1637 45.6524 58.7449C46.1981 58.3262 46.5905 57.739 46.7685 57.0745C46.9466 56.41 46.9004 55.7054 46.6371 55.0698C46.3739 54.4343 45.9083 53.9033 45.3125 53.5594Z" fill="#027DE5"/>
<path d="M40.625 59.375C40.3549 59.3787 40.0864 59.4181 39.8266 59.4922L35.9375 55.6031V43.75H32.8125V56.25C32.8126 56.6644 32.9773 57.0617 33.2703 57.3547L37.6172 61.7016C37.5431 61.9614 37.5037 62.2299 37.5 62.5C37.5 63.1181 37.6833 63.7223 38.0267 64.2362C38.37 64.7501 38.8581 65.1506 39.4291 65.3871C40.0001 65.6236 40.6285 65.6855 41.2347 65.565C41.8408 65.4444 42.3977 65.1467 42.8347 64.7097C43.2717 64.2727 43.5694 63.7159 43.69 63.1097C43.8105 62.5035 43.7486 61.8751 43.5121 61.3041C43.2756 60.7331 42.8751 60.245 42.3612 59.9017C41.8473 59.5583 41.2431 59.375 40.625 59.375Z" fill="#027DE5"/>
<path d="M28.125 51.9969V43.75H25V51.9969C24.4042 52.3408 23.9386 52.8718 23.6754 53.5073C23.4121 54.1429 23.3659 54.8475 23.544 55.512C23.722 56.1765 24.1144 56.7637 24.6601 57.1824C25.2059 57.6012 25.8746 57.8282 26.5625 57.8282C27.2504 57.8282 27.9191 57.6012 28.4649 57.1824C29.0106 56.7637 29.403 56.1765 29.581 55.512C29.7591 54.8475 29.7129 54.1429 29.4496 53.5073C29.1864 52.8718 28.7208 52.3408 28.125 51.9969Z" fill="#027DE5"/>
<path d="M89.1875 15.625H79.6875V18.75H89.1875C90.3972 18.7512 91.5569 19.2323 92.4123 20.0877C93.2677 20.9431 93.7488 22.1028 93.75 23.3125V73.5625C93.7488 74.7722 93.2677 75.9319 92.4123 76.7873C91.5569 77.6427 90.3972 78.1238 89.1875 78.125H10.8125C9.60283 78.1238 8.44306 77.6427 7.5877 76.7873C6.73233 75.9319 6.25124 74.7722 6.25 73.5625V23.3125C6.25124 22.1028 6.73233 20.9431 7.5877 20.0877C8.44306 19.2323 9.60283 18.7512 10.8125 18.75H20.3125V15.625H10.8125C8.77428 15.6271 6.82014 16.4377 5.3789 17.8789C3.93766 19.3201 3.12707 21.2743 3.125 23.3125V73.5625C3.12707 75.6007 3.93766 77.5549 5.3789 78.9961C6.82014 80.4373 8.77428 81.2479 10.8125 81.25H42.1875V85.9375H36.0531C34.3655 85.9396 32.7476 86.6109 31.5542 87.8042C30.3609 88.9976 29.6896 90.6155 29.6875 92.3031V95.3125C29.6875 95.7269 29.8521 96.1243 30.1451 96.4174C30.4382 96.7104 30.8356 96.875 31.25 96.875H68.75C69.1644 96.875 69.5618 96.7104 69.8549 96.4174C70.1479 96.1243 70.3125 95.7269 70.3125 95.3125V92.3031C70.3104 90.6155 69.6391 88.9976 68.4458 87.8042C67.2524 86.6109 65.6345 85.9396 63.9469 85.9375H57.8125V81.25H89.1875C91.2257 81.2479 93.1799 80.4373 94.6211 78.9961C96.0623 77.5549 96.8729 75.6007 96.875 73.5625V23.3125C96.8729 21.2743 96.0623 19.3201 94.6211 17.8789C93.1799 16.4377 91.2257 15.6271 89.1875 15.625ZM56.25 89.0625H63.9469C64.8061 89.0633 65.6299 89.405 66.2374 90.0126C66.845 90.6201 67.1867 91.4439 67.1875 92.3031V93.75H32.8125V92.3031C32.8133 91.4439 33.155 90.6201 33.7626 90.0126C34.3701 89.405 35.1939 89.0633 36.0531 89.0625H43.75C44.1644 89.0625 44.5618 88.8979 44.8549 88.6049C45.1479 88.3118 45.3125 87.9144 45.3125 87.5V81.25H54.6875V87.5C54.6875 87.9144 54.8521 88.3118 55.1451 88.6049C55.4382 88.8979 55.8356 89.0625 56.25 89.0625Z" fill="black"/>
<path d="M87.5 25.2875V65.625H12.5V25.2875C12.5004 25.2114 12.5308 25.1385 12.5847 25.0847C12.6385 25.0308 12.7114 25.0004 12.7875 25H20.3125V21.875H12.7875C11.8827 21.8758 11.0152 22.2356 10.3754 22.8754C9.73562 23.5152 9.37583 24.3827 9.375 25.2875V67.1875C9.375 67.6019 9.53962 67.9993 9.83265 68.2924C10.1257 68.5854 10.5231 68.75 10.9375 68.75H89.0625C89.4769 68.75 89.8743 68.5854 90.1674 68.2924C90.4604 67.9993 90.625 67.6019 90.625 67.1875V25.2875C90.6242 24.3827 90.2644 23.5152 89.6246 22.8754C88.9848 22.2356 88.1173 21.8758 87.2125 21.875H79.6875V25H87.2125C87.2886 25.0004 87.3615 25.0308 87.4153 25.0847C87.4692 25.1385 87.4996 25.2114 87.5 25.2875Z" fill="black"/>
</svg>
