<svg width="642" height="466" viewBox="0 0 642 466" fill="none" xmlns="http://www.w3.org/2000/svg">
<g clip-path="url(#clip0_138_2902)">
<path d="M409.113 348.859V461.037H128.067C96.0452 461.037 69.9922 435.875 69.9922 404.948C69.9922 374.021 96.0451 348.859 128.067 348.859H409.113Z" fill="#F2F2F2"/>
<path d="M416.018 460.173C416.017 461.317 415.562 462.414 414.753 463.223C413.944 464.032 412.847 464.487 411.703 464.487H123.062C107.385 464.487 92.3508 458.26 81.2657 447.175C70.1807 436.09 63.9531 421.055 63.9531 405.378C63.9531 389.702 70.1807 374.667 81.2657 363.582C92.3508 352.497 107.385 346.27 123.062 346.27H411.703C412.847 346.27 413.945 346.724 414.754 347.533C415.563 348.342 416.018 349.44 416.018 350.584C416.018 351.728 415.563 352.826 414.754 353.635C413.945 354.444 412.847 354.899 411.703 354.899H123.062C109.674 354.899 96.8342 360.217 87.3674 369.684C77.9005 379.151 72.5822 391.99 72.5822 405.378C72.5822 418.766 77.9005 431.606 87.3674 441.073C96.8342 450.54 109.674 455.858 123.062 455.858H411.703C412.847 455.859 413.944 456.313 414.753 457.122C415.562 457.931 416.017 459.029 416.018 460.173Z" fill="#6C63FF"/>
<path d="M409.113 374.745H107.097C106.868 374.745 106.649 374.654 106.487 374.493C106.325 374.331 106.234 374.111 106.234 373.882C106.234 373.654 106.325 373.434 106.487 373.272C106.649 373.11 106.868 373.02 107.097 373.02H409.113C409.342 373.02 409.562 373.11 409.724 373.272C409.885 373.434 409.976 373.654 409.976 373.882C409.976 374.111 409.885 374.331 409.724 374.493C409.562 374.654 409.342 374.745 409.113 374.745Z" fill="#CCCCCC"/>
<path d="M409.113 395.456H107.097C106.868 395.456 106.649 395.365 106.487 395.204C106.325 395.042 106.234 394.822 106.234 394.593C106.234 394.365 106.325 394.145 106.487 393.983C106.649 393.821 106.868 393.73 107.097 393.73H409.113C409.342 393.73 409.562 393.821 409.724 393.983C409.885 394.145 409.976 394.365 409.976 394.593C409.976 394.822 409.885 395.042 409.724 395.204C409.562 395.365 409.342 395.456 409.113 395.456Z" fill="#CCCCCC"/>
<path d="M409.113 416.165H107.097C106.868 416.165 106.649 416.074 106.487 415.913C106.325 415.751 106.234 415.531 106.234 415.302C106.234 415.074 106.325 414.854 106.487 414.692C106.649 414.53 106.868 414.439 107.097 414.439H409.113C409.342 414.439 409.562 414.53 409.724 414.692C409.885 414.854 409.976 415.074 409.976 415.302C409.976 415.531 409.885 415.751 409.724 415.913C409.562 416.074 409.342 416.165 409.113 416.165Z" fill="#CCCCCC"/>
<path d="M409.113 436.874H107.097C106.868 436.874 106.649 436.783 106.487 436.621C106.325 436.46 106.234 436.24 106.234 436.011C106.234 435.782 106.325 435.563 106.487 435.401C106.649 435.239 106.868 435.148 107.097 435.148H409.113C409.342 435.148 409.562 435.239 409.724 435.401C409.885 435.563 409.976 435.782 409.976 436.011C409.976 436.24 409.885 436.46 409.724 436.621C409.562 436.783 409.342 436.874 409.113 436.874Z" fill="#CCCCCC"/>
<path d="M626.322 369.976L555.94 457.326L337.094 280.992C312.16 260.901 307.66 224.961 327.064 200.88C346.468 176.798 382.542 173.551 407.477 193.642L626.322 369.976Z" fill="#F2F2F2"/>
<path d="M561.857 460.985C561.138 461.876 560.096 462.445 558.958 462.567C557.821 462.69 556.681 462.355 555.79 461.638L331.031 280.538C318.824 270.702 311.024 256.42 309.347 240.833C307.67 225.247 312.254 209.632 322.09 197.425C331.926 185.218 346.208 177.418 361.795 175.742C377.382 174.065 392.996 178.649 405.203 188.485L629.962 369.584C630.404 369.939 630.771 370.378 631.043 370.876C631.315 371.373 631.486 371.919 631.547 372.483C631.608 373.046 631.557 373.616 631.397 374.16C631.238 374.704 630.972 375.211 630.617 375.652C630.261 376.094 629.822 376.461 629.325 376.732C628.827 377.004 628.281 377.175 627.717 377.235C627.154 377.296 626.584 377.244 626.04 377.085C625.496 376.925 624.989 376.659 624.548 376.303L399.789 195.204C394.627 191.041 388.696 187.937 382.335 186.067C375.973 184.198 369.305 183.6 362.712 184.308C356.119 185.016 349.73 187.015 343.911 190.193C338.091 193.371 332.954 197.664 328.794 202.827C324.633 207.99 321.531 213.922 319.664 220.285C317.797 226.647 317.202 233.315 317.912 239.908C318.623 246.501 320.625 252.889 323.805 258.707C326.985 264.526 331.28 269.661 336.445 273.819L561.204 454.919C562.095 455.637 562.664 456.679 562.786 457.817C562.908 458.954 562.574 460.094 561.857 460.985Z" fill="#CCCCCC"/>
<path d="M610.081 390.133L374.907 200.642C374.819 200.571 374.746 200.483 374.692 200.384C374.637 200.284 374.603 200.175 374.591 200.063C374.579 199.95 374.589 199.836 374.621 199.727C374.653 199.619 374.706 199.517 374.777 199.429C374.848 199.341 374.936 199.267 375.035 199.213C375.135 199.159 375.244 199.124 375.357 199.112C375.469 199.1 375.583 199.11 375.692 199.142C375.801 199.174 375.902 199.227 375.99 199.298L611.164 388.79C611.253 388.861 611.326 388.948 611.381 389.048C611.435 389.147 611.469 389.257 611.482 389.369C611.494 389.482 611.484 389.596 611.452 389.705C611.42 389.814 611.367 389.915 611.296 390.004C611.224 390.092 611.137 390.165 611.037 390.22C610.938 390.274 610.828 390.308 610.715 390.32C610.603 390.332 610.489 390.322 610.38 390.29C610.271 390.258 610.17 390.205 610.081 390.133Z" fill="#CCCCCC"/>
<path d="M597.088 406.26L361.914 216.769C361.737 216.625 361.623 216.416 361.599 216.189C361.574 215.962 361.641 215.734 361.785 215.556C361.928 215.378 362.137 215.264 362.364 215.239C362.591 215.215 362.819 215.281 362.997 215.425L598.171 404.916C598.26 404.987 598.333 405.075 598.388 405.174C598.442 405.274 598.476 405.383 598.489 405.496C598.501 405.608 598.491 405.723 598.459 405.831C598.427 405.94 598.374 406.042 598.303 406.13C598.231 406.218 598.144 406.292 598.044 406.346C597.944 406.4 597.835 406.434 597.722 406.447C597.61 406.459 597.496 406.448 597.387 406.416C597.278 406.384 597.177 406.331 597.088 406.26Z" fill="#CCCCCC"/>
<path d="M584.093 422.385L348.919 232.894C348.741 232.751 348.627 232.542 348.603 232.315C348.578 232.087 348.645 231.859 348.789 231.681C348.932 231.503 349.141 231.389 349.368 231.364C349.596 231.34 349.824 231.407 350.002 231.55L585.176 421.042C585.264 421.113 585.338 421.201 585.392 421.3C585.446 421.399 585.48 421.509 585.493 421.621C585.505 421.734 585.494 421.848 585.463 421.957C585.431 422.065 585.378 422.167 585.306 422.255C585.235 422.343 585.148 422.417 585.048 422.471C584.949 422.525 584.84 422.559 584.727 422.571C584.614 422.584 584.5 422.573 584.391 422.542C584.283 422.51 584.181 422.457 584.093 422.385Z" fill="#CCCCCC"/>
<path d="M571.101 438.512L335.927 249.021C335.839 248.95 335.765 248.862 335.711 248.763C335.657 248.663 335.623 248.554 335.61 248.442C335.598 248.329 335.609 248.215 335.64 248.106C335.672 247.997 335.725 247.896 335.796 247.808C335.868 247.72 335.955 247.646 336.055 247.592C336.154 247.538 336.263 247.503 336.376 247.491C336.489 247.479 336.603 247.489 336.711 247.521C336.82 247.553 336.922 247.606 337.01 247.677L572.184 437.169C572.272 437.24 572.346 437.327 572.4 437.427C572.455 437.526 572.489 437.636 572.501 437.748C572.513 437.861 572.503 437.975 572.471 438.084C572.439 438.193 572.386 438.294 572.315 438.383C572.244 438.471 572.156 438.544 572.057 438.599C571.957 438.653 571.848 438.687 571.735 438.699C571.622 438.711 571.508 438.701 571.399 438.669C571.291 438.637 571.189 438.584 571.101 438.512Z" fill="#CCCCCC"/>
<path d="M641.137 465.351H0.862903C0.634047 465.351 0.414564 465.26 0.252738 465.098C0.0909121 464.936 0 464.717 0 464.488C0 464.259 0.0909121 464.04 0.252738 463.878C0.414564 463.716 0.634047 463.625 0.862903 463.625H641.137C641.366 463.625 641.585 463.716 641.747 463.878C641.909 464.04 642 464.259 642 464.488C642 464.717 641.909 464.936 641.747 465.098C641.585 465.26 641.366 465.351 641.137 465.351Z" fill="#CCCCCC"/>
<path d="M291.732 337.069L281.867 337.068L277.176 299.018L291.736 299.019L291.732 337.069Z" fill="#FFB8B8"/>
<path d="M274.819 334.25H293.844V346.229H262.84C262.84 344.656 263.15 343.098 263.752 341.645C264.354 340.191 265.236 338.871 266.348 337.758C267.461 336.646 268.781 335.764 270.235 335.162C271.688 334.56 273.246 334.25 274.819 334.25Z" fill="#2F2E41"/>
<path d="M190.947 337.069L181.082 337.068L176.391 299.018L190.95 299.019L190.947 337.069Z" fill="#FFB8B8"/>
<path d="M174.037 334.25H193.062V346.229H162.059C162.059 344.656 162.368 343.098 162.97 341.645C163.572 340.191 164.455 338.871 165.567 337.758C166.679 336.646 168 335.764 169.453 335.162C170.907 334.56 172.464 334.25 174.037 334.25Z" fill="#2F2E41"/>
<path d="M223.898 54.8229V50.5083C223.898 43.1277 226.83 36.0494 232.049 30.8305C237.268 25.6116 244.346 22.6797 251.727 22.6797C259.108 22.6797 266.186 25.6116 271.405 30.8305C276.624 36.0494 279.556 43.1277 279.556 50.5083V54.8229C279.556 60.1438 277.442 65.2468 273.68 69.0092C269.917 72.7717 264.814 74.8854 259.493 74.8854H243.961C241.326 74.8854 238.717 74.3665 236.283 73.3582C233.849 72.35 231.638 70.8722 229.775 69.0092C227.912 67.1462 226.434 64.9346 225.426 62.5005C224.417 60.0664 223.898 57.4575 223.898 54.8229Z" fill="#2F2E41"/>
<path d="M251.725 76.37C263.43 76.37 272.919 66.8812 272.919 55.1762C272.919 43.4712 263.43 33.9824 251.725 33.9824C240.02 33.9824 230.531 43.4712 230.531 55.1762C230.531 66.8812 240.02 76.37 251.725 76.37Z" fill="#FFB8B8"/>
<path d="M136.448 128.017C137.308 127.205 138.335 126.591 139.458 126.219C140.581 125.847 141.772 125.726 142.947 125.864C144.122 126.002 145.252 126.396 146.258 127.018C147.264 127.64 148.122 128.475 148.77 129.464L166.938 126.028L171.72 136.559L145.995 141.052C144.26 142.031 142.227 142.34 140.28 141.92C138.333 141.501 136.608 140.382 135.431 138.775C134.255 137.168 133.708 135.185 133.895 133.203C134.083 131.22 134.991 129.375 136.448 128.017Z" fill="#FFB8B8"/>
<path d="M235.442 90.0758L205.65 109.702L155.378 125.755C154.712 125.969 154.14 126.407 153.761 126.996C153.381 127.584 153.217 128.285 153.297 128.981L154.394 138.426C154.442 138.845 154.578 139.248 154.791 139.61C155.005 139.973 155.292 140.287 155.634 140.532C155.976 140.778 156.366 140.949 156.778 141.035C157.19 141.12 157.615 141.119 158.027 141.031L205.339 130.89C207.629 130.402 209.794 129.448 211.7 128.089L245.17 104.276C246.384 103.408 247.352 102.24 247.981 100.888C248.61 99.5346 248.878 98.042 248.759 96.5548C248.636 95.0657 248.128 93.6341 247.284 92.4009C246.44 91.1678 245.29 90.1755 243.946 89.5218C242.602 88.8681 241.112 88.5754 239.621 88.6725C238.13 88.7696 236.689 89.2533 235.442 90.0758Z" fill="#CCCCCC"/>
<path d="M282.042 326.271C281.285 326.271 280.544 326.051 279.91 325.637C279.276 325.223 278.776 324.634 278.472 323.94L233.247 212.194C233.142 211.951 232.964 211.747 232.739 211.608C232.514 211.47 232.252 211.404 231.988 211.418C231.724 211.433 231.471 211.529 231.263 211.692C231.055 211.855 230.901 212.077 230.824 212.33L193.927 321.12C193.772 321.626 193.514 322.095 193.17 322.498C192.826 322.901 192.404 323.229 191.929 323.463C191.453 323.697 190.935 323.831 190.406 323.857C189.877 323.883 189.348 323.8 188.852 323.614L176.479 318.975C175.808 318.725 175.219 318.294 174.777 317.73C174.336 317.165 174.06 316.49 173.98 315.778C168.414 267.289 216.952 144.897 217.443 143.667L217.579 143.326L261.826 153.114L261.918 153.214C279.572 172.472 294.082 293.938 296.811 318.092C296.913 318.965 296.715 319.846 296.249 320.59C295.783 321.335 295.077 321.898 294.248 322.188L283.327 326.051C282.914 326.197 282.48 326.271 282.042 326.271Z" fill="#2F2E41"/>
<path d="M243.92 157.054C233.2 157.054 221.248 154.916 217.569 146.094L217.484 145.891L217.598 145.704C220.502 140.939 224.34 132.811 222.277 131.286C218.214 128.281 216.242 123.338 216.417 116.594C216.797 101.955 226.772 88.9567 241.239 84.2508C245.277 82.9585 249.387 81.9004 253.547 81.0819C256.58 80.4699 259.71 80.5373 262.714 81.279C265.718 82.0208 268.52 83.4186 270.919 85.372C273.349 87.3382 275.313 89.8181 276.67 92.6336C278.027 95.449 278.743 98.5301 278.768 101.655C278.92 117.301 276.511 139.091 264.175 154.051C263.596 154.745 262.792 155.213 261.903 155.372C255.968 156.446 249.951 157.008 243.92 157.054Z" fill="#CCCCCC"/>
<path d="M239.93 156.467C240.514 154.374 241.9 152.596 243.787 151.519C245.673 150.443 247.909 150.154 250.008 150.717C250.436 150.836 250.854 150.991 251.257 151.179L265.052 138.625L274.646 145.088L254.918 162.546C254.027 164.152 252.625 165.414 250.934 166.131C249.244 166.848 247.361 166.979 245.588 166.504C244.554 166.221 243.587 165.736 242.742 165.077C241.898 164.418 241.192 163.598 240.666 162.665C240.14 161.732 239.804 160.704 239.678 159.64C239.551 158.576 239.637 157.498 239.93 156.467Z" fill="#FFB8B8"/>
<path d="M262.868 156.627C261.973 156.628 261.105 156.318 260.413 155.751L254.973 151.305C254.519 150.935 254.155 150.466 253.909 149.935C253.662 149.404 253.538 148.824 253.547 148.239C253.556 147.653 253.698 147.077 253.961 146.554C254.224 146.031 254.602 145.574 255.067 145.218L277.883 127.718C278.154 127.51 278.331 127.203 278.377 126.865C278.423 126.526 278.333 126.183 278.128 125.911L264.045 107.292C262.409 105.136 261.588 102.471 261.729 99.7684C261.869 97.0656 262.961 94.4995 264.811 92.5244C266.76 90.4197 269.429 89.1245 272.288 88.8958C275.147 88.6671 277.988 89.5216 280.246 91.2899L280.335 91.3838L295.041 112.441C296.631 113.688 297.912 115.285 298.782 117.109C299.653 118.932 300.091 120.932 300.06 122.953C300.03 124.973 299.534 126.959 298.609 128.756C297.684 130.553 296.357 132.112 294.73 133.31L265.18 155.866C264.51 156.36 263.7 156.627 262.868 156.627Z" fill="#CCCCCC"/>
<path d="M232.953 49.215V38.6995L251.726 30.502L269.626 38.6995V49.215C269.626 49.6727 269.445 50.1117 269.121 50.4353C268.797 50.759 268.358 50.9408 267.901 50.9408H234.679C234.221 50.9408 233.782 50.759 233.459 50.4353C233.135 50.1117 232.953 49.6727 232.953 49.215Z" fill="#2F2E41"/>
<path d="M250.866 24.0747C248.106 15.2398 253.903 5.11467 262.473 1.61761C271.043 -1.87945 281.296 0.565099 288.527 6.34277C295.758 12.1204 300.245 20.7743 302.622 29.7198C305 38.6654 305.451 47.9934 305.89 57.239C316.419 59.1731 323.582 71.6618 319.934 81.7267C316.287 91.7917 302.786 96.792 293.462 91.5313C284.138 86.2706 281.438 72.1293 288.167 63.803C291.351 59.8633 293.13 54.9738 293.221 49.909C293.313 44.8443 291.712 39.8938 288.672 35.8416C285.632 31.7894 281.328 28.8671 276.44 27.5377C271.552 26.2082 266.36 26.5475 261.686 28.5019C256.497 30.672 249.986 25.0336 250.866 24.0747Z" fill="#2F2E41"/>
<path d="M132.553 87.224C119.947 87.1413 107.498 84.4148 96.011 79.2207C95.3272 78.9159 94.7468 78.4189 94.3405 77.7901C93.9342 77.1613 93.7195 76.4279 93.7227 75.6793V44.2542C93.7238 43.2247 94.1333 42.2376 94.8613 41.5097C95.5892 40.7817 96.5763 40.3722 97.6058 40.3711H167.501C168.53 40.3723 169.517 40.7817 170.245 41.5097C170.973 42.2377 171.383 43.2247 171.384 44.2542V75.6794C171.387 76.428 171.172 77.1613 170.766 77.7901C170.36 78.4189 169.779 78.916 169.096 79.2207C157.609 84.4148 145.16 87.1413 132.553 87.224Z" fill="#6C63FF"/>
<path d="M132.543 61.766C132.025 61.7665 131.512 61.6633 131.034 61.4627L75.608 38.0783C74.8932 37.7768 74.2852 37.2681 73.8622 36.6178C73.4393 35.9674 73.2208 35.2054 73.235 34.4297C73.2492 33.6541 73.4955 32.9005 73.942 32.2661C74.3885 31.6317 75.0147 31.1456 75.7401 30.8705L131.167 9.8435C132.059 9.50327 133.047 9.50537 133.938 9.8494L188.622 30.8763C189.343 31.1537 189.965 31.6399 190.408 32.2728C190.852 32.9057 191.096 33.6564 191.11 34.429C191.125 35.2016 190.908 35.9608 190.489 36.6096C190.069 37.2585 189.465 37.7673 188.755 38.0712L134.07 61.4551C133.587 61.6607 133.068 61.7665 132.543 61.766Z" fill="#6C63FF"/>
<path d="M100.197 81.3587C103.056 81.3587 105.374 79.0407 105.374 76.1813C105.374 73.3219 103.056 71.0039 100.197 71.0039C97.3375 71.0039 95.0195 73.3219 95.0195 76.1813C95.0195 79.0407 97.3375 81.3587 100.197 81.3587Z" fill="#3F3D56"/>
<path opacity="0.2" d="M188.944 34.7524L134.26 58.1364C133.833 58.3187 133.375 58.4132 132.911 58.4143C132.447 58.4155 131.988 58.3232 131.561 58.1429L76.1351 34.7593C75.439 34.4726 74.8583 33.9622 74.4847 33.3086C74.2403 33.7324 74.0888 34.2034 74.0404 34.6902C73.9919 35.177 74.0476 35.6685 74.2037 36.1322C74.3598 36.5958 74.6127 37.0209 74.9457 37.3793C75.2787 37.7377 75.6841 38.0212 76.1351 38.2109L131.561 61.5945C131.988 61.7748 132.447 61.8671 132.911 61.866C133.375 61.8648 133.833 61.7703 134.26 61.588L188.944 38.204C189.393 38.0127 189.796 37.7283 190.127 37.3698C190.457 37.0112 190.708 36.5866 190.863 36.124C191.017 35.6613 191.072 35.1712 191.023 34.6859C190.974 34.2006 190.823 33.7311 190.579 33.3086C190.208 33.9569 189.634 34.4645 188.944 34.7524Z" fill="black"/>
<path d="M100.629 76.1606C100.857 76.1606 101.077 76.0697 101.239 75.9079C101.401 75.7461 101.491 75.5266 101.491 75.2977V46.4238L129.951 36.0559C130.18 36.0593 130.401 35.9716 130.565 35.8122C130.729 35.6528 130.823 35.4347 130.827 35.2058C130.83 34.977 130.743 34.7561 130.583 34.5919C130.424 34.4277 130.206 34.3335 129.977 34.3301L101.517 44.698C101.288 44.6927 101.06 44.734 100.848 44.8193C100.635 44.9046 100.442 45.0322 100.28 45.1943C100.117 45.3545 99.9869 45.5458 99.8985 45.757C99.8101 45.9681 99.7649 46.1949 99.7656 46.4238V75.2977C99.7656 75.5266 99.8566 75.7461 100.018 75.9079C100.18 76.0697 100.4 76.1606 100.629 76.1606Z" fill="#3F3D56"/>
</g>
<defs>
<clipPath id="clip0_138_2902">
<rect width="642" height="465.352" fill="white"/>
</clipPath>
</defs>
</svg>
